<?xml version="1.0"?>
<svg width="38" height="38" xmlns="http://www.w3.org/2000/svg" xmlns:svg="http://www.w3.org/2000/svg">
 <g>
  <title>Layer 1</title>
  <g id="svg_22">
   <path id="svg_24" fill="#1E88C9" d="m25.852488,20.817072l2.4,5.5c0.8,-1.2 1.5,-2.4 2.1,-3.7c0.3,-0.6 0.5,-1.2 0.8,-1.8l-5.3,0z"/>
   <path id="svg_23" fill="#178CD3" d="m32.952488,5.617072l0,-0.4l-0.4,-0.2c-0.2,-0.1 -4.3,-2.1 -13.5,-2.1l0,0c-9.2,0 -13.3,2 -13.5,2.1l-0.5,0.2l0,0.4c0,0.2 -0.3,5.2 0.1,7.6l0.1,0.4c0.2,1.6 0.6,4.9 2.4,8.9c2.3,4.9 6,9.2 10.9,12.6l0.4,0.3l0.5,-0.2c2.5,-1.8 4.7,-3.7 6.6,-5.9l-3.1,-7.1l-3.9,3.8l0,-18.3l12.4,12.4c1,-2.8 1.3,-5.1 1.4,-6.3l0.1,-0.4c0.2,-2.6 0,-7.6 0,-7.8z"/>
  </g>
 </g>

</svg>